<svg width="828" height="252" viewBox="0 0 828 252" fill="none" xmlns="http://www.w3.org/2000/svg">
<g clip-path="url(#clip0_69_104)">
<path d="M106.343 126.007C106.34 111.713 110.052 97.6671 117.111 85.2662C124.169 72.8653 134.328 62.5409 146.578 55.32C158.827 48.0995 172.739 44.2339 186.932 44.1077C201.125 43.9814 215.103 47.599 227.477 54.6008V0.0130098L0 99.2719V252L138.776 191.447C128.697 183.823 120.519 173.941 114.889 162.582C109.26 151.224 106.334 138.701 106.343 126.007ZM236.551 60.5662C253.056 73.0467 264.232 91.3822 267.81 111.854C271.387 132.326 267.1 153.402 255.816 170.808C244.533 188.213 227.099 200.646 207.05 205.584C187 210.523 165.835 207.596 147.849 197.4V251.987L375.339 152.716V0L236.551 60.5662Z" fill="#8C8F96"/>
<path d="M231.445 126.006C231.445 134.728 228.876 143.255 224.065 150.507C219.253 157.759 212.414 163.41 204.413 166.749C196.412 170.086 187.607 170.959 179.113 169.258C170.619 167.556 162.815 163.357 156.691 157.19C150.567 151.022 146.397 143.164 144.708 134.609C143.018 126.055 143.885 117.188 147.199 109.13C150.513 101.073 156.126 94.1845 163.328 89.3396C170.528 84.4936 178.995 81.9076 187.655 81.9076C193.407 81.9056 199.101 83.0451 204.415 85.2607C209.729 87.4768 214.556 90.7251 218.623 94.8201C222.69 98.9151 225.916 103.777 228.115 109.129C230.316 114.48 231.447 120.215 231.445 126.006Z" fill="#EE2E24"/>
<path d="M504.909 68.5813C494.518 68.5813 484.357 71.6854 475.715 77.5006C467.073 83.3162 460.337 91.5813 456.359 101.252C452.382 110.923 451.341 121.564 453.369 131.83C455.396 142.097 460.402 151.527 467.751 158.928C475.1 166.33 484.465 171.371 494.659 173.412C504.854 175.455 515.422 174.407 525.022 170.401C534.627 166.395 542.832 159.611 548.608 150.909C554.384 142.205 557.465 131.973 557.465 121.506C557.465 107.469 551.925 94.0076 542.074 84.0823C532.218 74.1576 518.85 68.5813 504.909 68.5813ZM504.909 149.163C499.467 149.163 494.145 147.537 489.617 144.491C485.09 141.445 481.563 137.115 479.479 132.05C477.396 126.983 476.85 121.41 477.912 116.032C478.974 110.655 481.596 105.714 485.446 101.838C489.296 97.9605 494.201 95.32 499.541 94.25C504.879 93.181 510.414 93.7299 515.448 95.8285C520.476 97.9262 524.776 101.479 527.802 106.038C530.823 110.598 532.439 115.957 532.439 121.44C532.429 128.79 529.524 135.836 524.365 141.032C519.206 146.229 512.211 149.153 504.909 149.163ZM642.643 112.264L613.874 71.2717H588.879V172.064H613.899V114.877L627.348 134.047L642.668 155.882L657.999 134.047L671.473 114.994V172.182H696.499V71.3367H671.473L642.643 112.264ZM827.714 71.2717H797.058L761.7 120.245V71.3367H736.674V172.129H761.7V122.974L797.073 172.129H827.714L791.086 121.727L827.714 71.2717Z" fill="#8C8F96"/>
</g>
<defs>
<clipPath id="clip0_69_104">
<rect width="828" height="252" fill="white"/>
</clipPath>
</defs>
</svg>

